<?xml version="1.0" encoding="utf-8"?>
<!-- Generator: Adobe Illustrator 19.0.0, SVG Export Plug-In . SVG Version: 6.00 Build 0)  -->
<svg version="1.1" id="Layer_1" xmlns="http://www.w3.org/2000/svg" xmlns:xlink="http://www.w3.org/1999/xlink" x="0px" y="0px"
	 viewBox="-297 389 16 16" style="enable-background:new -297 389 16 16;" xml:space="preserve">
<style type="text/css">
	.st0{fill:#FFFFFF;}
</style>
<path class="st0" d="M-297,390.5c0-0.3,0.2-0.5,0.5-0.5h1.5c0.2,0,0.4,0.2,0.5,0.4l0.4,1.6h11.6c0.3,0,0.5,0.2,0.5,0.5
	c0,0,0,0.1,0,0.1l-1.5,8c0,0.2-0.3,0.4-0.5,0.4h-9c-0.2,0-0.4-0.2-0.5-0.4l-1.5-8l-0.4-1.6h-1.1C-296.8,391-297,390.8-297,390.5z
	 M-293.9,393l1.3,7h8.2l1.3-7H-293.9z M-292,401c-1.1,0-2,0.9-2,2s0.9,2,2,2s2-0.9,2-2S-290.9,401-292,401z M-285,401
	c-1.1,0-2,0.9-2,2s0.9,2,2,2s2-0.9,2-2S-283.9,401-285,401z M-292,402c0.6,0,1,0.4,1,1s-0.4,1-1,1s-1-0.4-1-1S-292.6,402-292,402z
	 M-285,402c0.6,0,1,0.4,1,1s-0.4,1-1,1s-1-0.4-1-1S-285.6,402-285,402z"/>
</svg>
