<?xml version="1.0" encoding="utf-8"?>
<!-- Generator: Adobe Illustrator 19.0.0, SVG Export Plug-In . SVG Version: 6.00 Build 0)  -->
<svg version="1.1" id="Layer_1" xmlns="http://www.w3.org/2000/svg" xmlns:xlink="http://www.w3.org/1999/xlink" x="0px" y="0px"
	 viewBox="-297 389 16 16" style="enable-background:new -297 389 16 16;" xml:space="preserve">
<style type="text/css">
	.st0{fill:#FFFFFF;}
</style>
<path class="st0" d="M-289,397c1.7,0,3-1.3,3-3s-1.3-3-3-3s-3,1.3-3,3S-290.7,397-289,397z M-287,394c0,1.1-0.9,2-2,2s-2-0.9-2-2
	s0.9-2,2-2S-287,392.9-287,394z M-283,402c0,1-1,1-1,1h-10c0,0-1,0-1-1s1-4,6-4S-283,401-283,402z M-284,402c0-0.2-0.2-1-0.8-1.7
	c-0.7-0.7-1.9-1.3-4.2-1.3c-2.3,0-3.5,0.7-4.2,1.3c-0.7,0.7-0.8,1.4-0.8,1.7H-284z"/>
</svg>
